<svg xmlns="http://www.w3.org/2000/svg" height="129" version="1.1" viewBox="0 0 100 129" width="100"><rect fill="none" height="129" width="100"/><path fill="#007398" d="m92.43 43.43c-9.31 9.31-38.48 38.47-48.02 48.01l-18.52-23.57-7.87 6.18 25.51 32.43 32.47-32.45v40.97h-64v-88h-1e1v98h84v-60.97l13.51-13.54c-3.65-3.65-2.11-2.1-7.08-7.07zm-48.47-38.43c-6.72 0-13.44 4-15.5 12h-1.51c-3.85 0-6.95 3.1-6.95 6.96v14c0 3.86 3.1 7.04 6.96 7.04h34c3.85 0 7.04-3.18 7.04-7.04v-0.96h8v11.58l1e1 -1e1v-11.58h-18v-3.04c0-3.86-3.19-6.96-7.04-6.96h-1.51c-2.06-8-8.78-12-15.49-12zm0 9.97c3.58 0 6.31 3.13 5.97 6.54l-0.52 5.49h8.59v8h-28v-8h8.5c-0.03 0-0.55-5.66-0.55-6.02 0-3.31 2.69-6.01 6-6.01z"/><!--Copyright: Dutch Icon, Hemmo de Jonge, All right reserved. Licenced to: Elsevier (UCD)--></svg>
